<svg width="163" height="11" viewBox="0 0 163 11" fill="none" xmlns="http://www.w3.org/2000/svg">
<path d="M2.25491 8.37646V5.52046H4.29491C6.02291 5.52046 6.98291 4.34446 6.98291 2.95246C6.98291 1.54846 6.03491 0.372464 4.29491 0.372464H0.550911V8.37646H2.25491ZM4.05491 4.02046H2.25491V1.87246H4.05491C4.72691 1.87246 5.24291 2.28046 5.24291 2.95246C5.24291 3.61246 4.72691 4.02046 4.05491 4.02046ZM9.53891 8.37646V4.54846C9.79091 4.17646 10.4629 3.88846 10.9669 3.88846C11.1469 3.88846 11.2789 3.90046 11.3869 3.92446V2.43646C10.6669 2.43646 9.95891 2.85646 9.53891 3.36046V2.58046H8.01491V8.37646H9.53891ZM13.0951 1.95646C13.5991 1.95646 14.0071 1.54846 14.0071 1.04446C14.0071 0.540464 13.5991 0.144464 13.0951 0.144464C12.6031 0.144464 12.1951 0.540464 12.1951 1.04446C12.1951 1.54846 12.6031 1.95646 13.0951 1.95646ZM13.8631 8.37646V2.58046H12.3391V8.37646H13.8631ZM18.5183 8.37646L20.8463 2.58046H19.2143L17.6903 6.61246L16.1783 2.58046H14.5463L16.8743 8.37646H18.5183ZM26.5426 8.37646V4.63246C26.5426 2.96446 25.3306 2.43646 23.9986 2.43646C23.0866 2.43646 22.1746 2.71246 21.4666 3.34846L22.0666 4.41646C22.5466 3.97246 23.1226 3.73246 23.7346 3.73246C24.5026 3.73246 25.0066 4.11646 25.0066 4.70446V5.43646C24.6226 4.98046 23.9506 4.72846 23.1706 4.72846C22.2466 4.72846 21.1666 5.23246 21.1666 6.60046C21.1666 7.89646 22.2466 8.52046 23.1706 8.52046C23.9266 8.52046 24.6106 8.24446 25.0066 7.76446V8.37646H26.5426ZM23.7826 7.48846C23.1826 7.48846 22.6906 7.17646 22.6906 6.62446C22.6906 6.07246 23.1826 5.74846 23.7826 5.74846C24.2746 5.74846 24.7546 5.92846 25.0066 6.26446V6.98446C24.7546 7.32046 24.2746 7.48846 23.7826 7.48846ZM30.7423 8.52046C31.9303 8.52046 32.6503 7.99246 33.0343 7.46446L32.0383 6.52846C31.7623 6.92446 31.3423 7.16446 30.8143 7.16446C29.8903 7.16446 29.2423 6.48046 29.2423 5.47246C29.2423 4.46446 29.8903 3.79246 30.8143 3.79246C31.3423 3.79246 31.7623 4.00846 32.0383 4.41646L33.0343 3.48046C32.6503 2.95246 31.9303 2.43646 30.7423 2.43646C28.9663 2.43646 27.6703 3.69646 27.6703 5.47246C27.6703 7.26046 28.9663 8.52046 30.7423 8.52046ZM33.8385 10.6325C34.0185 10.6925 34.4145 10.7285 34.5825 10.7285C35.5785 10.7045 36.3465 10.4165 36.7785 9.32446L39.5025 2.58046H37.8705L36.3465 6.61246L34.8345 2.58046H33.2025L35.5545 8.44846L35.3385 8.95246C35.1945 9.26446 34.9305 9.37246 34.5345 9.37246C34.3905 9.37246 34.1865 9.33646 34.0545 9.27646L33.8385 10.6325ZM45.0049 8.37646V5.52046H47.0449C48.7729 5.52046 49.7329 4.34446 49.7329 2.95246C49.7329 1.54846 48.7849 0.372464 47.0449 0.372464H43.3009V8.37646H45.0049ZM46.8049 4.02046H45.0049V1.87246H46.8049C47.4769 1.87246 47.9929 2.28046 47.9929 2.95246C47.9929 3.61246 47.4769 4.02046 46.8049 4.02046ZM53.2537 8.52046C55.1737 8.52046 56.3257 7.11646 56.3257 5.47246C56.3257 3.82846 55.1737 2.43646 53.2537 2.43646C51.3457 2.43646 50.1937 3.82846 50.1937 5.47246C50.1937 7.11646 51.3457 8.52046 53.2537 8.52046ZM53.2537 7.16446C52.3057 7.16446 51.7777 6.38446 51.7777 5.47246C51.7777 4.57246 52.3057 3.79246 53.2537 3.79246C54.2137 3.79246 54.7417 4.57246 54.7417 5.47246C54.7417 6.38446 54.2137 7.16446 53.2537 7.16446ZM58.992 8.37646V0.372464H57.468V8.37646H58.992ZM61.2592 1.95646C61.7632 1.95646 62.1712 1.54846 62.1712 1.04446C62.1712 0.540464 61.7632 0.144464 61.2592 0.144464C60.7672 0.144464 60.3592 0.540464 60.3592 1.04446C60.3592 1.54846 60.7672 1.95646 61.2592 1.95646ZM62.0272 8.37646V2.58046H60.5032V8.37646H62.0272ZM66.2383 8.52046C67.4263 8.52046 68.1463 7.99246 68.5303 7.46446L67.5343 6.52846C67.2583 6.92446 66.8383 7.16446 66.3103 7.16446C65.3863 7.16446 64.7383 6.48046 64.7383 5.47246C64.7383 4.46446 65.3863 3.79246 66.3103 3.79246C66.8383 3.79246 67.2583 4.00846 67.5343 4.41646L68.5303 3.48046C68.1463 2.95246 67.4263 2.43646 66.2383 2.43646C64.4623 2.43646 63.1663 3.69646 63.1663 5.47246C63.1663 7.26046 64.4623 8.52046 66.2383 8.52046ZM69.3346 10.6325C69.5146 10.6925 69.9106 10.7285 70.0786 10.7285C71.0746 10.7045 71.8426 10.4165 72.2746 9.32446L74.9986 2.58046H73.3666L71.8426 6.61246L70.3306 2.58046H68.6986L71.0506 8.44846L70.8346 8.95246C70.6906 9.26446 70.4266 9.37246 70.0306 9.37246C69.8866 9.37246 69.6826 9.33646 69.5506 9.27646L69.3346 10.6325ZM109.391 8.52046C111.539 8.52046 112.595 7.41646 112.595 5.95246C112.595 2.96446 107.999 3.81646 107.999 2.55646C107.999 2.07646 108.407 1.76446 109.127 1.76446C109.943 1.76446 110.807 2.04046 111.455 2.64046L112.403 1.36846C111.611 0.636464 110.555 0.252464 109.283 0.252464C107.399 0.252464 106.247 1.35646 106.247 2.68846C106.247 5.70046 110.855 4.72846 110.855 6.12046C110.855 6.58846 110.411 7.00846 109.463 7.00846C108.359 7.00846 107.483 6.50446 106.919 5.91646L105.983 7.24846C106.739 8.00446 107.843 8.52046 109.391 8.52046ZM114.451 1.95646C114.955 1.95646 115.363 1.54846 115.363 1.04446C115.363 0.540464 114.955 0.144464 114.451 0.144464C113.959 0.144464 113.551 0.540464 113.551 1.04446C113.551 1.54846 113.959 1.95646 114.451 1.95646ZM115.219 8.37646V2.58046H113.695V8.37646H115.219ZM118.674 8.52046C119.31 8.52046 119.718 8.35246 119.946 8.14846L119.622 6.98446C119.538 7.08046 119.322 7.16446 119.094 7.16446C118.758 7.16446 118.566 6.88846 118.566 6.51646V3.91246H119.742V2.58046H118.566V0.996465H117.042V2.58046H116.082V3.91246H117.042V6.92446C117.042 7.96846 117.606 8.52046 118.674 8.52046ZM123.508 8.52046C124.408 8.52046 125.32 8.24446 125.896 7.71646L125.212 6.70846C124.84 7.06846 124.168 7.27246 123.676 7.27246C122.692 7.27246 122.116 6.68446 122.008 5.97646H126.316V5.61646C126.316 3.73246 125.152 2.43646 123.412 2.43646C121.66 2.43646 120.412 3.79246 120.412 5.47246C120.412 7.33246 121.744 8.52046 123.508 8.52046ZM124.852 4.92046H121.996C122.056 4.34446 122.464 3.68446 123.412 3.68446C124.42 3.68446 124.804 4.36846 124.852 4.92046Z" fill="white"/>
<path d="M134.423 8.52046C136.175 8.52046 137.195 7.54846 137.759 6.55246L136.295 5.84446C135.959 6.49246 135.239 7.00846 134.423 7.00846C132.959 7.00846 131.903 5.89246 131.903 4.38046C131.903 2.86846 132.959 1.75246 134.423 1.75246C135.239 1.75246 135.959 2.26846 136.295 2.91646L137.759 2.19646C137.195 1.18846 136.175 0.240464 134.423 0.240464C132.011 0.240464 130.151 1.90846 130.151 4.38046C130.151 6.84046 132.011 8.52046 134.423 8.52046ZM140.262 8.37646V4.54846C140.514 4.17646 141.186 3.88846 141.69 3.88846C141.87 3.88846 142.002 3.90046 142.11 3.92446V2.43646C141.39 2.43646 140.682 2.85646 140.262 3.36046V2.58046H138.738V8.37646H140.262ZM145.786 8.52046C146.686 8.52046 147.598 8.24446 148.174 7.71646L147.49 6.70846C147.118 7.06846 146.446 7.27246 145.954 7.27246C144.97 7.27246 144.394 6.68446 144.286 5.97646H148.594V5.61646C148.594 3.73246 147.43 2.43646 145.69 2.43646C143.938 2.43646 142.69 3.79246 142.69 5.47246C142.69 7.33246 144.022 8.52046 145.786 8.52046ZM147.13 4.92046H144.274C144.334 4.34446 144.742 3.68446 145.69 3.68446C146.698 3.68446 147.082 4.36846 147.13 4.92046ZM155.215 8.37646V0.372464H153.679V3.32446C153.223 2.72446 152.575 2.43646 151.891 2.43646C150.415 2.43646 149.323 3.58846 149.323 5.47246C149.323 7.41646 150.439 8.52046 151.891 8.52046C152.599 8.52046 153.223 8.20846 153.679 7.63246V8.37646H155.215ZM152.371 7.16446C151.495 7.16446 150.895 6.48046 150.895 5.47246C150.895 4.47646 151.495 3.79246 152.371 3.79246C152.875 3.79246 153.427 4.06846 153.679 4.45246V6.50446C153.427 6.88846 152.875 7.16446 152.371 7.16446ZM157.482 1.95646C157.986 1.95646 158.394 1.54846 158.394 1.04446C158.394 0.540464 157.986 0.144464 157.482 0.144464C156.99 0.144464 156.582 0.540464 156.582 1.04446C156.582 1.54846 156.99 1.95646 157.482 1.95646ZM158.25 8.37646V2.58046H156.726V8.37646H158.25ZM161.705 8.52046C162.341 8.52046 162.749 8.35246 162.977 8.14846L162.653 6.98446C162.569 7.08046 162.353 7.16446 162.125 7.16446C161.789 7.16446 161.597 6.88846 161.597 6.51646V3.91246H162.773V2.58046H161.597V0.996465H160.073V2.58046H159.113V3.91246H160.073V6.92446C160.073 7.96846 160.637 8.52046 161.705 8.52046Z" fill="#FFC000"/>
<path d="M129.743 9.97246H163.061V10.2125H129.743V9.97246Z" fill="#FFC000"/>
</svg>
