<svg width="245" height="48" viewBox="0 0 245 48" fill="none" xmlns="http://www.w3.org/2000/svg">
<path d="M11.864 24.272V32.624C11.864 33.904 11.992 34.848 12.248 35.456C12.536 36.032 13.016 36.416 13.688 36.608C14.392 36.8 15.496 36.912 17 36.944V38C13.064 37.904 10.136 37.856 8.216 37.856C6.616 37.856 4.6 37.888 2.168 37.952L0.632 38V37.04C1.688 36.976 2.456 36.848 2.936 36.656C3.448 36.464 3.784 36.096 3.944 35.552C4.136 35.008 4.232 34.128 4.232 32.912V9.104C4.232 7.888 4.136 7.008 3.944 6.464C3.784 5.92 3.448 5.552 2.936 5.36C2.456 5.168 1.688 5.04 0.632 4.976V4.016C2.264 4.112 4.696 4.16 7.928 4.16L13.256 4.112C13.896 4.08 14.632 4.064 15.464 4.064C19.784 4.064 23.08 4.928 25.352 6.656C27.624 8.352 28.76 10.64 28.76 13.52C28.76 15.28 28.312 16.976 27.416 18.608C26.52 20.208 25 21.552 22.856 22.64C20.744 23.728 17.928 24.272 14.408 24.272H11.864ZM14.84 4.976C13.976 4.976 13.336 5.088 12.92 5.312C12.536 5.536 12.264 5.936 12.104 6.512C11.944 7.088 11.864 7.952 11.864 9.104V23.312H13.928C16.52 23.312 18.312 22.48 19.304 20.816C20.296 19.152 20.792 16.896 20.792 14.048C20.792 10.944 20.328 8.656 19.4 7.184C18.504 5.712 16.984 4.976 14.84 4.976ZM47.414 12.512C48.854 12.512 49.942 12.944 50.678 13.808C51.414 14.672 51.782 15.712 51.782 16.928C51.782 18.112 51.43 19.088 50.726 19.856C50.054 20.592 49.158 20.96 48.038 20.96C46.95 20.96 46.086 20.688 45.446 20.144C44.806 19.568 44.486 18.816 44.486 17.888C44.486 16.352 45.19 15.104 46.598 14.144C46.47 14.112 46.278 14.096 46.022 14.096C45.702 14.096 45.446 14.128 45.254 14.192C44.038 14.384 42.998 15.12 42.134 16.4C41.302 17.68 40.886 18.992 40.886 20.336V33.056C40.886 34.528 41.238 35.552 41.942 36.128C42.678 36.704 43.83 36.992 45.398 36.992V38C44.95 38 44.582 37.984 44.294 37.952C41.03 37.856 38.854 37.808 37.766 37.808C36.902 37.808 34.934 37.856 31.862 37.952C31.606 37.984 31.286 38 30.902 38V36.992C32.054 36.992 32.854 36.752 33.302 36.272C33.75 35.76 33.974 34.848 33.974 33.536V18.416C33.974 16.944 33.75 15.872 33.302 15.2C32.854 14.528 32.054 14.192 30.902 14.192V13.184C31.926 13.28 32.918 13.328 33.878 13.328C36.726 13.328 39.062 13.104 40.886 12.656V17.12C41.494 15.744 42.374 14.64 43.526 13.808C44.678 12.944 45.974 12.512 47.414 12.512ZM65.036 12.512C68.716 12.512 71.596 13.568 73.676 15.68C75.756 17.76 76.796 21.072 76.796 25.616C76.796 30.16 75.756 33.472 73.676 35.552C71.596 37.632 68.716 38.672 65.036 38.672C61.388 38.672 58.508 37.632 56.396 35.552C54.316 33.472 53.276 30.16 53.276 25.616C53.276 21.072 54.316 17.76 56.396 15.68C58.508 13.568 61.388 12.512 65.036 12.512ZM65.036 13.472C63.66 13.472 62.556 14.48 61.724 16.496C60.924 18.48 60.524 21.52 60.524 25.616C60.524 29.712 60.924 32.752 61.724 34.736C62.556 36.72 63.66 37.712 65.036 37.712C66.444 37.712 67.548 36.736 68.348 34.784C69.148 32.8 69.548 29.744 69.548 25.616C69.548 21.488 69.132 18.432 68.3 16.448C67.5 14.464 66.412 13.472 65.036 13.472ZM97.0246 12.512C98.6886 12.512 100.161 12.96 101.441 13.856C102.753 14.752 103.777 16.096 104.513 17.888C105.249 19.68 105.617 21.872 105.617 24.464C105.617 29.04 104.609 32.56 102.593 35.024C100.609 37.456 97.9046 38.672 94.4806 38.672C93.5206 38.672 92.6086 38.544 91.7446 38.288C90.9126 38.032 90.1926 37.648 89.5846 37.136V41.936C89.5846 43.344 89.9366 44.32 90.6406 44.864C91.3446 45.408 92.4326 45.68 93.9046 45.68V46.688L92.6086 46.64C89.0566 46.544 86.8006 46.496 85.8406 46.496C84.8806 46.496 82.8646 46.56 79.7926 46.688V45.68C80.8486 45.68 81.5846 45.44 82.0006 44.96C82.4486 44.512 82.6726 43.664 82.6726 42.416V18.416C82.6726 16.944 82.4326 15.872 81.9526 15.2C81.5046 14.528 80.7206 14.192 79.6006 14.192V13.184C80.6246 13.28 81.6166 13.328 82.5766 13.328C85.3606 13.328 87.6966 13.104 89.5846 12.656V17.072C90.2566 15.6 91.2326 14.48 92.5126 13.712C93.7926 12.912 95.2966 12.512 97.0246 12.512ZM92.6086 37.376C94.6566 37.376 96.1286 36.368 97.0246 34.352C97.9206 32.304 98.3686 29.328 98.3686 25.424C98.3686 21.52 98.0006 18.736 97.2646 17.072C96.5606 15.408 95.5366 14.576 94.1926 14.576C93.1046 14.576 92.1286 14.944 91.2646 15.68C90.4326 16.416 89.8726 17.44 89.5846 18.752V36.08C90.3526 36.944 91.3606 37.376 92.6086 37.376ZM122.686 34.736C125.31 34.736 127.422 33.456 129.022 30.896L129.886 31.184C129.246 33.264 128.094 35.04 126.43 36.512C124.798 37.952 122.75 38.672 120.286 38.672C116.894 38.672 114.19 37.6 112.174 35.456C110.19 33.28 109.198 30.08 109.198 25.856C109.198 21.536 110.27 18.24 112.414 15.968C114.558 13.664 117.406 12.512 120.958 12.512C126.974 12.512 129.982 16.064 129.982 23.168H116.494C116.462 23.648 116.446 24.4 116.446 25.424C116.446 27.536 116.734 29.296 117.31 30.704C117.918 32.112 118.686 33.136 119.614 33.776C120.574 34.416 121.598 34.736 122.686 34.736ZM120.67 13.52C119.518 13.52 118.558 14.24 117.79 15.68C117.054 17.088 116.59 19.28 116.398 22.256H123.934C123.998 19.728 123.742 17.648 123.166 16.016C122.622 14.352 121.79 13.52 120.67 13.52ZM148.992 12.512C150.432 12.512 151.52 12.944 152.256 13.808C152.992 14.672 153.36 15.712 153.36 16.928C153.36 18.112 153.008 19.088 152.304 19.856C151.632 20.592 150.736 20.96 149.616 20.96C148.528 20.96 147.664 20.688 147.024 20.144C146.384 19.568 146.064 18.816 146.064 17.888C146.064 16.352 146.768 15.104 148.176 14.144C148.048 14.112 147.856 14.096 147.6 14.096C147.28 14.096 147.024 14.128 146.832 14.192C145.616 14.384 144.576 15.12 143.712 16.4C142.88 17.68 142.464 18.992 142.464 20.336V33.056C142.464 34.528 142.816 35.552 143.52 36.128C144.256 36.704 145.408 36.992 146.976 36.992V38C146.528 38 146.16 37.984 145.872 37.952C142.608 37.856 140.432 37.808 139.344 37.808C138.48 37.808 136.512 37.856 133.44 37.952C133.184 37.984 132.864 38 132.48 38V36.992C133.632 36.992 134.432 36.752 134.88 36.272C135.328 35.76 135.552 34.848 135.552 33.536V18.416C135.552 16.944 135.328 15.872 134.88 15.2C134.432 14.528 133.632 14.192 132.48 14.192V13.184C133.504 13.28 134.496 13.328 135.456 13.328C138.304 13.328 140.64 13.104 142.464 12.656V17.12C143.072 15.744 143.952 14.64 145.104 13.808C146.256 12.944 147.552 12.512 148.992 12.512ZM161.126 0.799998C162.47 0.799998 163.526 1.136 164.294 1.808C165.094 2.448 165.494 3.344 165.494 4.496C165.494 5.648 165.094 6.56 164.294 7.232C163.526 7.872 162.47 8.192 161.126 8.192C159.782 8.192 158.71 7.872 157.91 7.232C157.142 6.56 156.758 5.648 156.758 4.496C156.758 3.344 157.142 2.448 157.91 1.808C158.71 1.136 159.782 0.799998 161.126 0.799998ZM164.87 33.536C164.87 34.848 165.094 35.76 165.542 36.272C166.022 36.752 166.822 36.992 167.942 36.992V38C164.742 37.872 162.614 37.808 161.558 37.808C160.566 37.808 158.342 37.872 154.886 38V36.992C156.038 36.992 156.838 36.752 157.286 36.272C157.734 35.76 157.958 34.848 157.958 33.536V18.416C157.958 16.944 157.734 15.872 157.286 15.2C156.838 14.528 156.038 14.192 154.886 14.192V13.184C155.91 13.28 156.902 13.328 157.862 13.328C160.71 13.328 163.046 13.104 164.87 12.656V33.536ZM187.883 12.512C190.315 12.512 192.075 13.136 193.163 14.384C193.707 14.992 194.091 15.776 194.315 16.736C194.539 17.696 194.651 18.992 194.651 20.624V33.536C194.651 34.848 194.875 35.76 195.323 36.272C195.803 36.752 196.603 36.992 197.723 36.992V38C194.523 37.872 192.411 37.808 191.387 37.808C190.427 37.808 188.347 37.872 185.147 38V36.992C186.107 36.992 186.779 36.752 187.163 36.272C187.547 35.76 187.739 34.848 187.739 33.536V18.608C187.739 17.296 187.515 16.304 187.067 15.632C186.651 14.96 185.883 14.624 184.763 14.624C183.451 14.624 182.331 15.168 181.403 16.256C180.475 17.312 180.011 18.624 180.011 20.192V33.536C180.011 34.848 180.203 35.76 180.587 36.272C180.971 36.752 181.643 36.992 182.603 36.992V38C179.659 37.872 177.675 37.808 176.651 37.808C175.691 37.808 173.483 37.872 170.027 38V36.992C171.179 36.992 171.979 36.752 172.427 36.272C172.875 35.76 173.099 34.848 173.099 33.536V18.416C173.099 16.944 172.875 15.872 172.427 15.2C171.979 14.528 171.179 14.192 170.027 14.192V13.184C171.051 13.28 172.043 13.328 173.003 13.328C175.851 13.328 178.187 13.104 180.011 12.656V16.976C181.451 14 184.075 12.512 187.883 12.512ZM221.935 17.792C221.295 17.792 220.751 17.584 220.303 17.168C219.855 16.72 219.631 16.096 219.631 15.296C219.631 14.528 219.823 13.744 220.207 12.944C219.439 13.264 218.799 13.632 218.287 14.048C217.807 14.432 217.391 14.928 217.039 15.536C218.031 16.72 218.527 18.256 218.527 20.144C218.527 22.672 217.647 24.576 215.887 25.856C214.159 27.136 211.855 27.776 208.975 27.776H208.111C206.799 28.544 206.143 29.392 206.143 30.32C206.143 31.344 206.783 31.856 208.063 31.856H213.295C216.111 31.856 218.351 32.384 220.015 33.44C221.711 34.464 222.559 36.048 222.559 38.192C222.559 39.824 222.031 41.296 220.975 42.608C219.951 43.952 218.383 45.024 216.271 45.824C214.159 46.624 211.567 47.024 208.495 47.024C205.391 47.024 202.895 46.624 201.007 45.824C199.151 45.056 198.223 43.936 198.223 42.464C198.223 41.472 198.671 40.576 199.567 39.776C200.463 39.008 201.791 38.4 203.551 37.952L203.983 38.72C202.831 39.68 202.255 40.784 202.255 42.032C202.255 43.376 202.863 44.4 204.079 45.104C205.295 45.84 206.975 46.208 209.119 46.208C211.359 46.208 213.167 45.76 214.543 44.864C215.951 43.968 216.655 42.704 216.655 41.072C216.655 40.016 216.255 39.184 215.455 38.576C214.687 37.968 213.327 37.664 211.375 37.664H208.399C206.351 37.664 204.751 37.328 203.599 36.656C202.447 35.952 201.871 34.896 201.871 33.488C201.871 32.304 202.287 31.248 203.119 30.32C203.951 29.392 205.215 28.496 206.911 27.632C204.607 27.344 202.783 26.576 201.439 25.328C200.095 24.08 199.423 22.352 199.423 20.144C199.423 17.616 200.287 15.712 202.015 14.432C203.775 13.152 206.095 12.512 208.975 12.512C212.175 12.512 214.623 13.264 216.319 14.768C216.927 13.904 217.679 13.216 218.575 12.704C219.471 12.192 220.383 11.936 221.311 11.936C222.271 11.936 223.023 12.224 223.567 12.8C224.143 13.344 224.431 14.064 224.431 14.96C224.431 15.856 224.175 16.56 223.663 17.072C223.183 17.552 222.607 17.792 221.935 17.792ZM208.975 26.912C209.871 26.912 210.543 26.4 210.991 25.376C211.471 24.352 211.711 22.608 211.711 20.144C211.711 17.68 211.471 15.936 210.991 14.912C210.543 13.888 209.871 13.376 208.975 13.376C208.079 13.376 207.391 13.888 206.911 14.912C206.463 15.936 206.239 17.68 206.239 20.144C206.239 22.608 206.463 24.352 206.911 25.376C207.391 26.4 208.079 26.912 208.975 26.912ZM234.844 12.512C236.06 12.512 237.18 12.672 238.204 12.992C239.228 13.28 240.012 13.616 240.556 14C240.876 14.224 241.164 14.336 241.42 14.336C241.708 14.336 241.948 14.192 242.14 13.904C242.364 13.584 242.508 13.136 242.572 12.56H243.58C243.452 14.192 243.388 17.008 243.388 21.008H242.38C242.092 18.896 241.452 17.136 240.46 15.728C239.5 14.288 238.092 13.568 236.236 13.568C235.276 13.568 234.476 13.84 233.836 14.384C233.228 14.928 232.924 15.68 232.924 16.64C232.924 17.728 233.292 18.672 234.028 19.472C234.764 20.24 235.916 21.184 237.484 22.304L238.876 23.312C240.828 24.784 242.268 26.096 243.196 27.248C244.124 28.4 244.588 29.84 244.588 31.568C244.588 32.976 244.172 34.224 243.34 35.312C242.54 36.4 241.452 37.232 240.076 37.808C238.7 38.384 237.18 38.672 235.516 38.672C233.756 38.672 232.252 38.336 231.004 37.664C229.98 37.152 229.244 36.816 228.796 36.656C228.476 36.56 228.188 36.672 227.932 36.992C227.708 37.28 227.532 37.728 227.404 38.336H226.396C226.524 36.512 226.588 33.312 226.588 28.736H227.596C228.236 34.624 230.396 37.568 234.076 37.568C235.004 37.568 235.788 37.296 236.428 36.752C237.1 36.176 237.436 35.312 237.436 34.16C237.436 33.264 237.228 32.464 236.812 31.76C236.428 31.056 235.932 30.432 235.324 29.888C234.716 29.344 233.804 28.592 232.588 27.632C231.148 26.48 230.044 25.552 229.276 24.848C228.54 24.144 227.9 23.312 227.355 22.352C226.844 21.392 226.588 20.32 226.588 19.136C226.588 17.088 227.388 15.472 228.988 14.288C230.588 13.104 232.54 12.512 234.844 12.512Z" fill="#333333"/>
</svg>
